#!OML:ASF E:\Steps\Project 1\Capture day 1\Session 2\Subject.ASF
:FULLY-SPECIFIED
:DEGREES
123
root 7.25162 16.2987 31.497 -156.583 -3.15358 177.986
lowerback -29.0305 -2.22287 -7.27902
upperback -1.07553 -1.11286 0.0234148
thorax 14.2471 -1.22052 3.49279
lowerneck -7.0843 -2.67126 -1.33445
upperneck 11.26 -4.12652 3.67491
head 4.64168 -1.96024 1.08946
rclavicle 1.63003e-014 -2.20651e-014
rhumerus -36.8699 -23.6335 -75.4739
rradius 26.7754
rwrist 2.00422
rhand -10.2497 -54.0617
rfingers 7.12502
rthumb 15.7432 -83.4414
lclavicle 1.63003e-014 -2.20651e-014
lhumerus -31.1522 15.3992 77.3033
lradius 14.3715
lwrist -15.1944
lhand -18.4824 -13.8263
lfingers 7.12502
lthumb 7.80473 16.0097
rfemur -22.0548 5.44899 19.3337
rtibia 9.72295
rfoot -20.3078 -9.74869
rtoes -34.4232
lfemur -25.2577 -10.1514 -20.5245
ltibia 13.8946
lfoot -11.586 1.68109
ltoes -43.4995
124
root 7.25815 16.3019 31.5032 -156.563 -3.21346 177.894
lowerback -28.8684 -2.28051 -7.37794
upperback -1.12356 -1.16798 -0.031165
thorax 14.1213 -1.24668 3.46851
lowerneck -7.26046 -2.74471 -0.992498
upperneck 11.6744 -4.25593 3.34443
head 4.78803 -2.02822 0.918282
rclavicle 9.44227e-016 -1.47101e-014
rhumerus -36.9337 -23.6909 -75.4875
rradius 26.7187
rwrist 2.13602
rhand -9.83463 -51.9716
rfingers 7.12502
rthumb 16.1429 -81.3193
lclavicle 9.44227e-016 -1.47101e-014
lhumerus -31.2169 15.2191 77.2268
lradius 14.4068
lwrist -15.0332
lhand -18.5173 -13.5116
lfingers 7.12502
lthumb 7.77109 16.3256
rfemur -22.0908 5.14891 19.3153
rtibia 9.75545
rfoot -20.3875 -9.49763
rtoes -34.0669
lfemur -25.3302 -10.1664 -20.5974
ltibia 13.9661
lfoot -11.6003 1.68452
ltoes -44.1498
125
root 7.26212 16.3005 31.503 -156.57 -3.21663 177.875
lowerback -28.7961 -2.27761 -7.37223
upperback -1.11712 -1.16534 -0.0590524
thorax 14.0944 -1.24261 3.43795
lowerneck -7.42541 -2.82698 -0.828457
upperneck 11.954 -4.38296 3.1595
head 4.89729 -2.09303 0.821572
rclavicle -2.88238e-015 3.18055e-015
rhumerus -36.9504 -23.7124 -75.4957
rradius 26.6871
rwrist 2.24122
rhand -9.87455 -53.4507
rfingers 7.12502
rthumb 16.1045 -82.8015
lclavicle -2.88238e-015 3.18055e-015
lhumerus -31.2065 14.8809 77.3245
lradius 14.4794
lwrist -14.734
lhand -18.5276 -13.3614
lfingers 7.12502
lthumb 7.7611 16.4762
rfemur -22.034 5.34066 19.2781
rtibia 9.64826
rfoot -20.3547 -9.67909
rtoes -34.1733
lfemur -25.3044 -10.3052 -20.5685
ltibia 13.9347
lfoot -11.6041 1.70446
ltoes -43.7818
126
root 7.26504 16.2997 31.5015 -156.559 -3.21467 177.859
lowerback -28.7891 -2.26164 -7.34697
upperback -1.08266 -1.14082 -0.106716
thorax 14.1269 -1.22871 3.38225
lowerneck -7.31534 -2.78757 -0.953802
upperneck 11.9153 -4.35761 3.45056
head 4.87545 -2.07269 0.93507
rclavicle 6.4605e-015 -8.74653e-015
rhumerus -36.9501 -23.8392 -75.5172
rradius 26.6964
rwrist 2.30218
rhand -9.79204 -53.8005
rfingers 7.12502
rthumb 16.1839 -83.1449
lclavicle 6.4605e-015 -8.74653e-015
lhumerus -31.1291 14.8814 77.2714
lradius 14.4343
lwrist -14.819
lhand -18.5354 -13.6212
lfingers 7.12502
lthumb 7.75361 16.2166
rfemur -22.0872 5.58878 19.2287
rtibia 9.76384
rfoot -20.4603 -9.90671
rtoes -34.2258
lfemur -25.3139 -10.3539 -20.5472
ltibia 13.9209
lfoot -11.6626 1.60174
ltoes -42.8137
127
root 7.26848 16.3012 31.5029 -156.489 -3.22341 177.833
lowerback -28.8295 -2.27579 -7.35934
upperback -1.07092 -1.14933 -0.123124
thorax 14.1596 -1.23417 3.36661
lowerneck -7.21192 -2.67601 -1.03776
upperneck 12.078 -4.22879 3.54037
head 4.9087 -2.01265 0.984958
rclavicle -1.93815e-015 3.26007e-014
rhumerus -36.9644 -23.7934 -75.5505
rradius 26.7914
rwrist 2.12868
rhand -9.72197 -54.1024
rfingers 7.12502
rthumb 16.2514 -83.4413
lclavicle -1.93815e-015 3.26007e-014
lhumerus -31.0359 15.0419 77.2055
lradius 14.3344
lwrist -15.0463
lhand -18.596 -13.8477
lfingers 7.12502
lthumb 7.6951 15.9923
rfemur -22.2986 5.5243 19.2088
rtibia 10.019
rfoot -20.663 -9.86202
rtoes -34.2952
lfemur -25.4235 -10.3971 -20.5271
ltibia 13.9508
lfoot -11.5784 1.64823
ltoes -43.1366
128
root 7.27261 16.2988 31.5039 -156.419 -3.21968 177.826
lowerback -28.888 -2.30833 -7.39607
upperback -1.04834 -1.17703 -0.0854622
thorax 14.2173 -1.25139 3.41533
lowerneck -6.78782 -2.85898 -1.08052
upperneck 11.3948 -4.4278 3.58889
head 4.63388 -2.11324 1.00588
rclavicle -4.47266e-016 -3.45885e-014
rhumerus -36.9753 -23.6079 -75.6012
rradius 26.9634
rwrist 1.89795
rhand -9.91499 -54.9507
rfingers 7.12502
rthumb 16.0655 -84.3047
lclavicle -4.47266e-016 -3.45885e-014
lhumerus -30.9039 15.0067 77.3215
lradius 14.3225
lwrist -14.9642
lhand -18.7111 -13.7179
lfingers 7.12502
lthumb 7.58396 16.1262
rfemur -22.4443 5.50782 19.2016
rtibia 10.105
rfoot -20.7425 -9.83845
rtoes -34.5469
lfemur -25.4716 -10.6847 -20.442
ltibia 13.8826
lfoot -11.4785 1.91762
ltoes -43.7866
129
root 7.27689 16.3 31.505 -156.514 -3.28608 177.741
lowerback -28.7124 -2.3933 -7.46884
upperback -1.01829 -1.26871 -0.0836882
thorax 14.1826 -1.29286 3.42561
lowerneck -6.96841 -2.88498 -0.997887
upperneck 11.7545 -4.48595 3.47356
head 4.77181 -2.14392 0.947507
rclavicle -2.08724e-015 1.43125e-014
rhumerus -37.0038 -23.5608 -75.6466
rradius 27.064
rwrist 1.85579
rhand -10.0476 -55.2628
rfingers 7.12502
rthumb 15.9378 -84.627
lclavicle -2.08724e-015 1.43125e-014
lhumerus -30.869 15.061 77.3235
lradius 14.3754
lwrist -14.8435
lhand -18.8411 -13.3634
lfingers 7.12502
lthumb 7.45851 16.4851
rfemur -22.2987 5.46774 19.1406
rtibia 10.0494
rfoot -20.7316 -9.88073
rtoes -34.5241
lfemur -25.4037 -10.4526 -20.5928
ltibia 13.955
lfoot -11.5858 1.43387
ltoes -43.1486
130
root 7.2805 16.296 31.5038 -156.409 -3.25009 177.688
lowerback -28.7609 -2.43234 -7.44902
upperback -1.08071 -1.3339 -0.110733
thorax 14.138 -1.32219 3.35791
lowerneck -6.85346 -2.80437 -1.30832
upperneck 11.8459 -4.41874 3.91952
head 4.79549 -2.10478 1.14017
rclavicle 4.32357e-015 -4.37326e-015
rhumerus -37.126 -23.5258 -75.6445
rradius 27.1218
rwrist 1.75961
rhand -10.0365 -55.264
rfingers 7.12502
rthumb 15.9485 -84.6274
lclavicle 4.32357e-015 -4.37326e-015
lhumerus -31.0001 14.9769 77.286
lradius 14.4795
lwrist -14.6072
lhand -18.8892 -13.0928
lfingers 7.12502
lthumb 7.41214 16.7574
rfemur -22.415 5.63783 19.049
rtibia 10.0651
rfoot -20.7049 -10.0196
rtoes -34.3488
lfemur -25.489 -10.5694 -20.6014
ltibia 13.8924
lfoot -11.5998 1.47243
ltoes -42.4197
131
root 7.28557 16.296 31.5035 -156.395 -3.27626 177.75
lowerback -28.7348 -2.42183 -7.35789
upperback -1.10606 -1.35595 -0.108257
thorax 14.0985 -1.32547 3.30356
lowerneck -6.67855 -2.73209 -1.61251
upperneck 11.8964 -4.35632 4.32113
head 4.7948 -2.07148 1.31934
rclavicle 1.73937e-015 -1.15295e-014
rhumerus -37.2785 -23.4438 -75.6538
rradius 27.2936
rwrist 1.47573
rhand -10.0269 -55.3596
rfingers 7.12502
rthumb 15.9577 -84.7223
lclavicle 1.73937e-015 -1.15295e-014
lhumerus -31.0274 14.7693 77.301
lradius 14.5231
lwrist -14.4185
lhand -18.7185 -13.2413
lfingers 7.12502
lthumb 7.57685 16.603
rfemur -22.4326 5.93427 19.1105
rtibia 10.0489
rfoot -20.6212 -10.3182
rtoes -34.5369
lfemur -25.5048 -10.5908 -20.4923
ltibia 13.8491
lfoot -11.5541 1.59555
ltoes -42.6834
132
root 7.29142 16.2976 31.5008 -156.463 -3.25296 177.786
lowerback -28.7123 -2.40162 -7.35498
upperback -1.05009 -1.32094 -0.103538
thorax 14.1498 -1.30872 3.32186
lowerneck -6.87493 -2.76466 -1.39979
upperneck 12.4032 -4.42047 3.97433
head 4.97384 -2.11291 1.16709
rclavicle 4.87022e-015 3.97569e-015
rhumerus -37.3163 -23.3268 -75.7205
rradius 27.4854
rwrist 1.13242
rhand -10.0665 -55.6771
rfingers 7.12502
rthumb 15.9196 -85.0428
lclavicle 4.87022e-015 3.97569e-015
lhumerus -30.8956 14.9243 77.2271
lradius 14.4472
lwrist -14.633
lhand -18.4802 -13.7929
lfingers 7.12502
lthumb 7.80685 16.043
rfemur -22.3549 6.06457 19.1744
rtibia 10.0295
rfoot -20.5852 -10.432
rtoes -34.6771
lfemur -25.4058 -10.4233 -20.4781
ltibia 13.8283
lfoot -11.6082 1.51121
ltoes -42.8438
133
root 7.29808 16.2971 31.4964 -156.503 -3.16076 177.692
lowerback -28.7136 -2.41867 -7.5182
upperback -0.991581 -1.27951 -0.105309
thorax 14.215 -1.30106 3.42433
lowerneck -7.01371 -2.84095 -1.15997
upperneck 12.7785 -4.53475 3.61678
head 5.10312 -2.17941 1.00487
rclavicle 2.04748e-014 -2.54444e-014
rhumerus -37.3297 -23.2782 -75.7017
rradius 27.5819
rwrist 0.951788
rhand -10.1626 -55.9563
rfingers 7.12502
rthumb 15.8271 -85.3294
lclavicle 2.04748e-014 -2.54444e-014
lhumerus -30.7837 14.9433 77.2521
lradius 14.4637
lwrist -14.6477
lhand -18.3184 -14.2875
lfingers 7.12502
lthumb 7.96307 15.5425
rfemur -22.3475 6.12441 19.0767
rtibia 10.1278
rfoot -20.6866 -10.4978
rtoes -34.7036
lfemur -25.2904 -10.2506 -20.6154
ltibia 13.7261
lfoot -11.5635 1.30092
ltoes -42.5528
